<?xml version="1.0" encoding="UTF-8"?>
<!-- Created with Inkscape (http://www.inkscape.org/) -->
<svg id="svg1" width="50" height="50" inkscape:version="1.3 (0e150ed6c4, 2023-07-21)" sodipodi:docname="admin.svg" version="1.1" viewBox="0 0 13.229 13.229" xmlns="http://www.w3.org/2000/svg" xmlns:inkscape="http://www.inkscape.org/namespaces/inkscape" xmlns:sodipodi="http://sodipodi.sourceforge.net/DTD/sodipodi-0.dtd">
 <sodipodi:namedview id="namedview1" bordercolor="#000000" borderopacity="0.25" inkscape:current-layer="layer1" inkscape:cx="17.689394" inkscape:cy="21.62037" inkscape:deskcolor="#d1d1d1" inkscape:document-units="px" inkscape:pagecheckerboard="0" inkscape:pageopacity="0.0" inkscape:showpageshadow="2" inkscape:window-height="703" inkscape:window-maximized="1" inkscape:window-width="1366" inkscape:window-x="0" inkscape:window-y="0" inkscape:zoom="7.6316917" pagecolor="#ffffff"/>
 <g id="layer1" inkscape:groupmode="layer" inkscape:label="Layer 1">
  <path id="path2" d="m6.5991 1.1674s-1.2783 0.86257-2.1239 1.2237c-1.5598 0.66615-3.0182-0.63403-3.0251-0.44545-0.40831 11.074 5.1356 10.54 5.1356 10.54s5.6171 0.49767 5.208-10.572c-0.0071-0.1902-1.3457 1.109-2.9456 0.48059-0.79475-0.31217-2.249-1.2263-2.249-1.2263zm-0.35863 2.7482h0.85369l2.0066 5.9567h-0.79892l-0.56276-1.8159h-2.1611l-0.57206 1.8159h-0.77205l2.0066-5.9567zm0.39946 0.61753c-0.19068 0.69008-0.38131 1.3438-0.59014 2.0066l-0.28112 0.90847h1.7797l-0.28164-0.90847c-0.20884-0.66284-0.40855-1.3165-0.59014-2.0066h-0.03669z" fill="#f00"/>
 </g>
</svg>
