<?xml version="1.0" encoding="UTF-8"?>
<!-- Created with Inkscape (http://www.inkscape.org/) -->
<svg id="svg1" width="50" height="50" inkscape:version="1.3 (0e150ed6c4, 2023-07-21)" sodipodi:docname="authors.svg" version="1.1" viewBox="0 0 13.229 13.229" xmlns="http://www.w3.org/2000/svg" xmlns:inkscape="http://www.inkscape.org/namespaces/inkscape" xmlns:sodipodi="http://sodipodi.sourceforge.net/DTD/sodipodi-0.dtd">
 <sodipodi:namedview id="namedview1" bordercolor="#000000" borderopacity="0.25" inkscape:current-layer="layer1" inkscape:cx="25.70038" inkscape:cy="25.822183" inkscape:deskcolor="#d1d1d1" inkscape:document-units="px" inkscape:pagecheckerboard="0" inkscape:pageopacity="0.0" inkscape:showpageshadow="2" inkscape:window-height="703" inkscape:window-maximized="1" inkscape:window-width="1366" inkscape:window-x="0" inkscape:window-y="0" inkscape:zoom="8.2099954" pagecolor="#ffffff"/>
 <g id="layer1" stroke="#fff" stroke-width=".13229" inkscape:groupmode="layer" inkscape:label="Layer 1">
  <path id="path6-5" d="m10.631 1.3843a1.4283 1.4283 0 0 0-1.4283 1.4283 1.4283 1.4283 0 0 0 0.5817 1.1459 2.3373 2.74 0 0 0-1.4941 2.5485 2.3373 2.74 0 0 0 2.3371 2.7398 2.3373 2.74 0 0 0 2.3376-2.7398 2.3373 2.74 0 0 0-1.4848-2.5505 1.4283 1.4283 0 0 0 0.57913-1.1438 1.4283 1.4283 0 0 0-1.4283-1.4283z" fill="#005800"/>
  <path id="path6-5-2" d="m2.6444 1.2273a1.4283 1.4283 0 0 0-1.4283 1.4283 1.4283 1.4283 0 0 0 0.5817 1.1459 2.3373 2.74 0 0 0-1.4941 2.5485 2.3373 2.74 0 0 0 2.3371 2.7398 2.3373 2.74 0 0 0 2.3376-2.7398 2.3373 2.74 0 0 0-1.4848-2.5505 1.4283 1.4283 0 0 0 0.57913-1.1438 1.4283 1.4283 0 0 0-1.4283-1.4283z" fill="#005800"/>
  <path id="path6" d="m6.6641 1.5472a2.0654 2.0654 0 0 0-2.0654 2.0654 2.0654 2.0654 0 0 0 0.8412 1.6571 3.38 3.9623 0 0 0-2.1606 3.6853 3.38 3.9623 0 0 0 3.3797 3.962 3.38 3.9623 0 0 0 3.3804-3.962 3.38 3.9623 0 0 0-2.1472-3.6883 2.0654 2.0654 0 0 0 0.83748-1.6541 2.0654 2.0654 0 0 0-2.0654-2.0654z" fill="#008000"/>
 </g>
</svg>
