<?xml version="1.0" encoding="UTF-8" standalone="no"?>
<svg
   id="svg8"
   version="1.1"
   viewBox="0 0 132.29166 132.29167"
   height="100%"
   width="100%"
   xmlns="http://www.w3.org/2000/svg"
   xmlns:svg="http://www.w3.org/2000/svg"
   xmlns:rdf="http://www.w3.org/1999/02/22-rdf-syntax-ns#"
   xmlns:cc="http://creativecommons.org/ns#"
   xmlns:dc="http://purl.org/dc/elements/1.1/">
  <defs
     id="defs2" />
  <metadata
     id="metadata5">
    <rdf:RDF>
      <cc:Work
         rdf:about="">
        <dc:format>image/svg+xml</dc:format>
        <dc:type
           rdf:resource="http://purl.org/dc/dcmitype/StillImage" />
      </cc:Work>
    </rdf:RDF>
  </metadata>
  <g
     transform="translate(0,-164.70832)"
     id="layer1"
     style="fill:#ff9955;fill-opacity:1">
    <path
       style="opacity:1;fill:#ff9955;fill-opacity:1;stroke:#000000;stroke-width:1.32291667;stroke-linecap:round;stroke-linejoin:round;stroke-miterlimit:4;stroke-dasharray:none;stroke-opacity:1"
       d="m 70.278091,184.61161 c 0.314823,-2.44477 1.743422,-6.68163 1.84687,-8.28326 0.103425,-1.60163 0.165398,-3.18547 0,-4.67189 -0.357519,-3.21314 -2.529799,-5.67107 -5.671665,-5.67107 -3.141878,0 -5.490387,3.02701 -5.671072,5.67107 -0.09086,1.33007 -0.06352,2.95595 0,4.67189 0.06352,1.71593 1.532047,5.83849 1.84687,8.28326 0.314823,2.44477 0.255653,4.35383 0,7.4999 -0.255653,3.14606 -1.490805,6.90688 -1.84687,11.28863 -0.356077,4.38176 2.462485,14.85859 2.462485,14.93849 0,0.0799 0.497265,0.57654 0.577155,0.57654 h 5.263457 c 0.07992,0 0.577143,-0.49664 0.577143,-0.57654 0,-0.0799 2.818573,-10.55673 2.462497,-14.93849 -0.356065,-4.38175 -1.591217,-8.14257 -1.84687,-11.28863 -0.255654,-3.14607 -0.314823,-5.05513 0,-7.4999 z"
       id="path864" />
    <circle
       style="opacity:1;fill:#ff9955;fill-opacity:1;stroke:#000000;stroke-width:1.32291667;stroke-linecap:round;stroke-linejoin:round;stroke-miterlimit:4;stroke-dasharray:none;stroke-opacity:1"
       id="circle884"
       cx="66.128372"
       cy="230.91759"
       r="9.4403734" />
    <path
       id="path891"
       d="m 101.76621,201.07768 c 1.95132,-1.50609 5.9574,-3.49184 7.16307,-4.55121 1.20566,-1.05939 2.36943,-2.13552 3.30353,-3.30352 2.01923,-2.52484 2.22121,-5.79889 -4.3e-4,-8.02053 -2.22164,-2.22164 -6.0227,-1.74187 -8.0201,0 -1.00475,0.87625 -2.13509,2.04526 -3.30352,3.30352 -1.168433,1.25827 -3.04512,5.21176 -4.551212,7.16309 -1.506104,1.95132 -2.897859,3.2594 -5.303234,5.30323 -2.405375,2.04383 -5.938056,3.82974 -9.288203,6.67633 -3.350158,2.84659 -8.765367,12.24785 -8.821861,12.30435 -0.05654,0.0565 -0.05607,0.7593 4.3e-4,0.81579 l 3.721824,3.72182 c 0.05654,0.0565 0.759282,0.0569 0.815776,4.3e-4 0.05654,-0.0565 9.457778,-5.47171 12.304354,-8.82186 2.8466,-3.35014 4.632509,-6.88282 6.676339,-9.2882 2.043831,-2.40538 3.351904,-3.79714 5.303237,-5.30324 z"
       style="opacity:1;fill:#ff9955;fill-opacity:1;stroke:#000000;stroke-width:1.32291667;stroke-linecap:round;stroke-linejoin:round;stroke-miterlimit:4;stroke-dasharray:none;stroke-opacity:1" />
    <path
       style="opacity:1;fill:#ff9955;fill-opacity:1;stroke:#000000;stroke-width:1.32291667;stroke-linecap:round;stroke-linejoin:round;stroke-miterlimit:4;stroke-dasharray:none;stroke-opacity:1"
       d="m 112.38839,234.98642 c 2.44476,0.31482 6.68162,1.74342 8.28325,1.84686 1.60163,0.10343 3.18548,0.16541 4.67189,1e-5 3.21314,-0.35752 5.67107,-2.5298 5.67106,-5.67167 0,-3.14188 -3.02699,-5.49039 -5.67106,-5.67107 -1.33007,-0.0909 -2.95595,-0.0635 -4.67189,0 -1.71593,0.0635 -5.83849,1.53204 -8.28325,1.84687 -2.44478,0.31482 -4.35384,0.25565 -7.49991,0 -3.14606,-0.25565 -6.906873,-1.4908 -11.288626,-1.84687 -4.381765,-0.35608 -14.858584,2.46249 -14.938486,2.46249 -0.07992,-3e-5 -0.57656,0.49725 -0.576549,0.57715 v 5.26346 c 1.2e-5,0.0799 0.496648,0.57714 0.576538,0.57714 0.07992,3e-5 10.556744,2.81858 14.938497,2.4625 4.381753,-0.35606 8.142566,-1.59122 11.288626,-1.84687 3.14607,-0.25565 5.05513,-0.31483 7.49991,0 z"
       id="path893" />
    <path
       id="path895"
       d="m 95.922315,266.47453 c 1.506092,1.95132 3.491835,5.95741 4.551215,7.16308 1.05938,1.20566 2.13551,2.36942 3.30351,3.30353 2.52484,2.01922 5.7989,2.22121 8.02053,-4.3e-4 2.22164,-2.22165 1.74187,-6.02271 0,-8.02011 -0.87625,-1.00474 -2.04525,-2.13508 -3.30352,-3.30352 -1.25827,-1.16843 -5.21176,-3.04512 -7.16308,-4.55121 -1.951338,-1.5061 -3.259411,-2.89786 -5.303241,-5.30323 -2.043831,-2.40538 -3.82974,-5.93806 -6.676328,-9.2882 -2.846588,-3.35016 -12.247849,-8.76537 -12.304342,-8.82186 -0.05654,-0.0565 -0.759305,-0.0561 -0.815799,4.3e-4 l -3.721824,3.72182 c -0.05654,0.0565 -0.05689,0.75928 -4.19e-4,0.81577 0.05654,0.0565 5.471703,9.45778 8.821861,12.30436 3.350135,2.8466 6.882816,4.63251 9.288192,6.67634 2.405386,2.04383 3.797141,3.3519 5.303245,5.30323 z"
       style="opacity:1;fill:#ff9955;fill-opacity:1;stroke:#000000;stroke-width:1.32291667;stroke-linecap:round;stroke-linejoin:round;stroke-miterlimit:4;stroke-dasharray:none;stroke-opacity:1" />
    <path
       style="opacity:1;fill:#ff9955;fill-opacity:1;stroke:#000000;stroke-width:1.32291667;stroke-linecap:round;stroke-linejoin:round;stroke-miterlimit:4;stroke-dasharray:none;stroke-opacity:1"
       d="m 62.013583,277.09672 c -0.314823,2.44475 -1.743422,6.68162 -1.84687,8.28325 -0.103425,1.60163 -0.165398,3.18548 -1.2e-5,4.67189 0.357519,3.21313 2.529799,5.67107 5.671677,5.67106 3.141878,0 5.490387,-3.027 5.671072,-5.67106 0.09086,-1.33008 0.06352,-2.95595 0,-4.67189 -0.06352,-1.71594 -1.532047,-5.8385 -1.84687,-8.28325 -0.314835,-2.44478 -0.255665,-4.35385 -1.2e-5,-7.49991 0.255654,-3.14607 1.490805,-6.90688 1.84687,-11.28863 0.356089,-4.38176 -2.462485,-14.85859 -2.462485,-14.93848 0,-0.08 -0.497253,-0.57656 -0.577154,-0.57656 h -5.263458 c -0.07992,0 -0.577119,0.49667 -0.577131,0.57655 0,0.0799 -2.818585,10.55673 -2.462497,14.93849 0.356053,4.38175 1.591205,8.14256 1.846858,11.28863 0.255654,3.14606 0.314835,5.05514 1.2e-5,7.49991 z"
       id="path897" />
    <path
       id="path899"
       d="m 30.525467,260.63064 c -1.951319,1.50609 -5.957404,3.49183 -7.163075,4.55121 -1.20566,1.05939 -2.369427,2.13552 -3.30353,3.30352 -2.019225,2.52483 -2.221224,5.79889 4.3e-4,8.02052 2.221642,2.22164 6.022704,1.74189 8.020105,10e-6 1.004743,-0.87626 2.135074,-2.04526 3.303518,-3.30353 1.168432,-1.25825 3.045119,-5.21175 4.551211,-7.16307 1.506092,-1.95134 2.897847,-3.25942 5.303222,-5.30325 2.405387,-2.04383 5.938056,-3.82973 9.288203,-6.67633 3.35017,-2.84658 8.765367,-12.24784 8.821861,-12.30434 0.05654,-0.0565 0.05607,-0.7593 -4.18e-4,-0.81579 l -3.721836,-3.72183 c -0.05654,-0.0565 -0.75927,-0.0569 -0.815764,-4.1e-4 -0.05654,0.0565 -9.45779,5.4717 -12.304354,8.82186 -2.8466,3.35013 -4.632521,6.88281 -6.67634,9.28819 -2.04383,2.40538 -3.351915,3.79715 -5.303233,5.30324 z"
       style="opacity:1;fill:#ff9955;fill-opacity:1;stroke:#000000;stroke-width:1.32291667;stroke-linecap:round;stroke-linejoin:round;stroke-miterlimit:4;stroke-dasharray:none;stroke-opacity:1" />
    <path
       style="opacity:1;fill:#ff9955;fill-opacity:1;stroke:#000000;stroke-width:1.32291667;stroke-linecap:round;stroke-linejoin:round;stroke-miterlimit:4;stroke-dasharray:none;stroke-opacity:1"
       d="m 19.903283,226.72191 c -2.444756,-0.31482 -6.681621,-1.74342 -8.28325,-1.84687 -1.601641,-0.10342 -3.1854818,-0.1654 -4.6718894,-1e-5 -3.213135,0.35752 -5.6710834,2.5298 -5.6710602,5.67167 0,3.14188 3.0269938,5.4904 5.6710602,5.67108 1.3300722,0.0908 2.9559461,0.0635 4.6718894,-1e-5 1.715919,-0.0635 5.838494,-1.53204 8.28325,-1.84686 2.444767,-0.31484 4.353843,-0.25567 7.499897,-2e-5 3.146078,0.25566 6.906875,1.49081 11.288628,1.84687 4.381777,0.35609 14.858596,-2.46248 14.938486,-2.46248 0.07992,0 0.576561,-0.49726 0.576561,-0.57715 l -1.2e-5,-5.26347 c -1.2e-5,-0.0799 -0.49666,-0.57711 -0.576538,-0.57712 -0.07992,0 -10.556744,-2.81859 -14.938485,-2.4625 -4.381753,0.35606 -8.142574,1.5912 -11.288628,1.84686 -3.146066,0.25566 -5.055154,0.31483 -7.499909,1e-5 z"
       id="path901" />
    <path
       id="path903"
       d="m 36.369359,195.2338 c -1.506092,-1.95132 -3.491835,-5.95741 -4.551211,-7.16308 -1.0594,-1.20566 -2.135529,-2.36943 -3.303518,-3.30353 -2.524832,-2.01923 -5.798905,-2.22123 -8.020524,4.3e-4 -2.221642,2.22164 -1.741886,6.0227 -1.1e-5,8.02011 0.87626,1.00474 2.045261,2.13507 3.30353,3.30351 1.258256,1.16843 5.211756,3.04512 7.163075,4.55121 1.95133,1.50609 3.259414,2.89785 5.303233,5.30322 2.043843,2.40539 3.82974,5.93806 6.676328,9.2882 2.8466,3.35018 12.24786,8.76538 12.304354,8.82187 0.05654,0.0565 0.759294,0.0561 0.815787,-4.2e-4 l 3.721825,-3.72184 c 0.05654,-0.0565 0.05689,-0.75927 4.18e-4,-0.81576 -0.05654,-0.0565 -5.471703,-9.45779 -8.821861,-12.30435 -3.350135,-2.8466 -6.882816,-4.63253 -9.288191,-6.67634 -2.405375,-2.04383 -3.797153,-3.35192 -5.303234,-5.30323 z"
       style="opacity:1;fill:#ff9955;fill-opacity:1;stroke:#000000;stroke-width:1.32291667;stroke-linecap:round;stroke-linejoin:round;stroke-miterlimit:4;stroke-dasharray:none;stroke-opacity:1" />
    <path
       id="circle888"
       d="m 66.128607,183.55653 a 47.361252,47.361252 0 0 0 -47.361496,47.36092 47.361252,47.361252 0 0 0 47.361496,47.36151 47.361252,47.361252 0 0 0 47.360923,-47.36151 47.361252,47.361252 0 0 0 -47.360923,-47.36092 z m 0,8.90009 a 38.460782,38.460782 0 0 1 38.460863,38.46083 38.460782,38.460782 0 0 1 -38.460863,38.46083 38.460782,38.460782 0 0 1 -38.460804,-38.46083 38.460782,38.460782 0 0 1 38.460804,-38.46083 z"
       style="opacity:1;fill:#ff9955;fill-opacity:1;stroke:#000000;stroke-width:1.32291667;stroke-linecap:round;stroke-linejoin:round;stroke-miterlimit:4;stroke-dasharray:none;stroke-opacity:1" />
    <path
       style="font-size:6.35px;font-family:System-ui;-inkscape-font-specification:System-ui;fill:none;stroke:#000000;stroke-width:0.5;stroke-linecap:round;fill-opacity:1"
       d="m 107.15904,211.89332 -0.25497,-0.49009 -4.24802,0.58511 0.0264,0.0507 2.95562,-3.0694 -0.27255,-0.52389 -3.19443,3.40837 0.31651,0.6084 z m -1.54437,-0.13425 -1.01693,-1.95475 -0.4056,0.211 1.01693,1.95475 z m -1.34478,-5.15584 c -0.55258,-0.86015 -1.4682,-1.08705 -2.29095,-0.55848 l -2.393434,1.53764 0.27801,0.43274 2.446864,-1.57196 c 0.58233,-0.37412 1.14735,-0.24652 1.53176,0.35184 0.405,0.63042 0.26442,1.23396 -0.37668,1.64583 l -2.35604,1.51361 0.28487,0.44343 2.40947,-1.54793 c 0.8174,-0.52514 1.00499,-1.40795 0.46613,-2.24672 z m -2.17304,-2.99195 -0.32231,-0.417 -3.125045,2.41541 -0.900926,-1.16561 -0.361741,0.27959 2.120282,2.74321 0.361741,-0.2796 -0.897042,-1.16058 z m -2.821798,-3.41071 c -0.866662,-0.92833 -2.120365,-0.92198 -3.132244,0.0227 -0.965463,0.90133 -1.047322,2.10708 -0.206659,3.00756 0.853663,0.9144 2.089724,0.89846 3.087678,-0.0332 0.979393,-0.91433 1.078893,-2.11049 0.251225,-2.99704 z m -0.377531,0.26558 c 0.632663,0.67768 0.514563,1.63059 -0.297725,2.38892 -0.76123,0.71066 -1.67481,0.75565 -2.281474,0.10582 -0.645663,-0.69161 -0.549847,-1.64977 0.248517,-2.3951 0.775155,-0.72366 1.711018,-0.76339 2.330682,-0.0996 z m -1.791817,-2.40971 -0.395164,-0.34875 -2.613532,2.96135 -0.652258,-0.57565 c -0.47134,-0.41598 -0.533186,-0.9025 -0.17183,-1.31195 0.357155,-0.40468 0.810617,-0.41948 1.262913,-0.0203 l 0.842698,0.74372 0.294128,-0.33327 -0.795089,-0.70171 c -0.685585,-0.60506 -1.53453,-0.58358 -2.072363,0.0258 -0.512622,0.58085 -0.386662,1.3018 0.289401,1.89846 l 1.095033,0.96642 z m -1.918687,-1.69333 -0.47134,-0.41598 -0.464083,2.36836 0.452296,0.39917 z m -1.079171,-0.85773 -0.41602,-0.32358 -2.705659,3.47853 0.41602,0.32358 z m -33.017463,-9.55889 -0.490225,0.0707 0.548514,3.80239 0.09427,-0.0136 -3.131626,-3.42976 -0.578214,0.0834 0.629205,4.36175 0.490225,-0.0707 -0.550328,-3.81496 -0.100559,0.0145 3.12087,3.44414 0.597069,-0.0861 z m -4.178677,0.62617 -0.536784,0.13063 -0.445604,4.26492 0.05553,-0.0135 -2.275331,-3.60274 -0.573802,0.13964 2.547517,3.91556 0.666351,-0.16217 z m -0.498947,1.4677 -2.140962,0.52103 0.108109,0.44424 2.140963,-0.52103 z m -4.13853,-0.31607 c -0.713626,0.22845 -0.973623,0.81173 -0.712265,1.62817 l 0.956374,2.98756 0.501958,-0.16069 -0.973798,-3.04198 c -0.158751,-0.49591 -0.02404,-0.84574 0.381153,-0.97545 0.181431,-0.0581 0.440762,-0.0811 0.637201,-0.0506 l 0.02511,-0.42142 c -0.288371,-0.0677 -0.561733,-0.0469 -0.815736,0.0344 z m -2.141056,0.75423 -0.458184,0.18812 1.45914,3.55387 0.08811,-0.0362 -3.873418,-2.56261 -0.540422,0.22188 1.67379,4.07667 0.458184,-0.18812 -1.463963,-3.56562 -0.09399,0.0386 3.866494,2.57919 0.558045,-0.22912 z m -5.970338,2.6697 c -1.117758,0.60293 -1.429535,1.81726 -0.772347,3.03562 0.627042,1.16246 1.772617,1.5474 2.856841,0.96257 1.100992,-0.59388 1.399017,-1.79359 0.750873,-2.99517 -0.636085,-1.17924 -1.767909,-1.57881 -2.835367,-1.00302 z m 0.161165,0.43254 c 0.815963,-0.44014 1.707771,-0.0842 2.235331,0.89378 0.494398,0.91656 0.306249,1.81169 -0.476181,2.23374 -0.83273,0.44918 -1.735275,0.11352 -2.253791,-0.84775 -0.503442,-0.93333 -0.304556,-1.84868 0.494641,-2.27977 z m -3.676888,1.71997 -0.427483,0.28603 1.115459,4.55604 0.443316,-0.29662 -1.12916,-4.32531 -0.263878,0.17657 3.546288,2.70799 0.50137,-0.33547 z m -2.251888,1.58837 -0.41944,0.31914 2.668488,3.50713 0.41944,-0.31914 z m -1.57918,1.15903 c -0.574587,0.48094 -0.595155,1.11921 -0.04493,1.77658 l 2.013415,2.40547 0.404158,-0.33828 -2.050096,-2.4493 c -0.334211,-0.39929 -0.341528,-0.77408 -0.01528,-1.04716 0.146081,-0.12227 0.377538,-0.24148 0.570941,-0.28743 l -0.135831,-0.39971 c -0.292593,0.0462 -0.537864,0.16865 -0.742378,0.33983 z m -1.67372,1.53178 -0.387988,0.35671 2.982666,3.24415 0.387988,-0.35672 z m -3.571428,3.53358 c -0.284552,0.31629 -0.511035,0.71044 -0.65444,1.14517 l 0.368657,0.16938 c 0.117939,-0.32098 0.324607,-0.66462 0.549701,-0.91482 0.70501,-0.78364 1.729229,-0.80177 2.564794,-0.05 0.797799,0.71775 0.85508,1.63199 0.145823,2.42035 -0.237835,0.26436 -0.562047,0.5108 -0.881555,0.67605 l 0.190755,0.37662 c 0.344058,-0.12609 0.725377,-0.39803 1.014177,-0.71903 0.913115,-1.01496 0.83122,-2.31009 -0.197894,-3.23594 -0.986628,-0.88764 -2.229373,-0.83549 -3.100018,0.13226 z m 3.814726,3.01343 -0.182623,0.20299 0.116803,1.18987 0.286021,-0.0331 -0.0011,-0.95767 0.918011,-0.071 0.0098,-0.40969 z m -5.167198,-1.31802 -1.517769,1.98894 0.373557,0.28507 1.198036,-1.56995 3.129803,2.38837 0.319733,-0.41899 z m -1.632566,2.12028 -0.299161,0.46444 2.614641,3.39879 0.03095,-0.048 -4.131077,-1.04456 -0.319793,0.49647 4.543863,1.08385 0.371372,-0.57655 z m 0.649245,1.40769 -1.193205,1.85242 0.384364,0.24758 1.193205,-1.85242 z m -3.063568,2.40986 -0.226663,0.4404 3.415868,1.75809 0.04359,-0.0847 -4.610208,0.56244 -0.267347,0.51943 3.918368,2.01672 0.226663,-0.44039 -3.42716,-1.7639 -0.0465,0.0903 4.615688,-0.54534 0.276064,-0.53638 z m -2.883392,6.04008 c -0.156588,0.39558 -0.231623,0.84394 -0.21465,1.3014 l 0.404566,0.0304 c -0.0012,-0.34195 0.07282,-0.73606 0.196689,-1.04899 0.387964,-0.98011 1.341751,-1.3538 2.386806,-0.94012 0.99782,0.39497 1.369909,1.23203 0.979609,2.21804 -0.130879,0.33064 -0.34897,0.67456 -0.590923,0.94074 l 0.309974,0.28661 c 0.278608,-0.23802 0.54135,-0.62573 0.700275,-1.02722 0.502482,-1.26942 -0.02533,-2.45495 -1.312461,-2.96444 -1.233991,-0.48846 -2.380774,-0.007 -2.859885,1.2036 z m -0.666572,2.06365 -0.162035,0.50153 4.193467,1.35484 0.162034,-0.50152 z m -1.824838,20.68877 c 0.147403,0.97315 0.739446,1.53214 1.505409,1.41612 1.544483,-0.23394 0.559265,-2.58304 1.683096,-2.75326 0.458322,-0.0694 0.765566,0.26296 0.866371,0.92847 0.05611,0.37042 0.04163,0.78365 -0.04266,1.11754 l 0.43187,0.0952 c 0.107129,-0.39516 0.13131,-0.82912 0.06855,-1.24349 -0.147404,-0.97315 -0.72689,-1.53404 -1.486575,-1.41897 -1.494255,0.22633 -0.566494,2.57771 -1.677768,2.74603 -0.439487,0.0666 -0.779074,-0.26734 -0.878928,-0.92657 -0.05991,-0.39554 -0.02736,-0.90142 0.08377,-1.35497 l -0.43187,-0.0952 c -0.146517,0.51672 -0.191629,1.0245 -0.121255,1.4891 z m 0.4749,2.38139 0.558811,2.4387 0.458029,-0.10496 -0.441092,-1.92496 3.837541,-0.87934 -0.117719,-0.51374 z m 1.142518,4.58643 c 0.310383,0.9741 1.135719,1.43089 2.067462,1.134 l 2.710527,-0.86368 -0.156156,-0.49007 -2.771029,0.88296 c -0.659481,0.21013 -1.172009,-0.0598 -1.387927,-0.73739 -0.227486,-0.71393 0.06494,-1.2603 0.790974,-1.49164 l 2.668174,-0.85018 -0.160011,-0.50217 -2.728677,0.86945 c -0.925693,0.29496 -1.336009,1.09883 -1.033337,2.04872 z m 1.646733,4.38514 c 0.166229,0.39163 0.42758,0.76358 0.760841,1.07742 l 0.30942,-0.2624 c -0.240956,-0.24265 -0.464923,-0.57528 -0.596418,-0.88508 -0.411851,-0.97031 0.005,-1.90605 1.039585,-2.34519 0.987848,-0.41929 1.840493,-0.0845 2.254826,0.89169 0.138937,0.32733 0.225099,0.72535 0.239689,1.08477 l 0.42195,-0.0135 c 0.03129,-0.3651 -0.05382,-0.82566 -0.222531,-1.22313 -0.533421,-1.25673 -1.741616,-1.73037 -3.015881,-1.18951 -1.221658,0.51854 -1.700092,1.66668 -1.191481,2.86496 z m 4.344203,-2.18193 0.106684,0.25135 1.127581,0.39748 0.091,-0.27317 -0.868246,-0.40408 0.324017,-0.86186 -0.367071,-0.18221 z m -3.643221,3.65329 0.260507,0.48718 4.241113,-0.63327 -0.02695,-0.0504 -2.920614,3.10273 0.278473,0.52077 3.155566,-3.44439 -0.323388,-0.60476 z m 1.545793,0.11673 1.039032,1.94309 0.403177,-0.21559 -1.039032,-1.94309 z m 0.728281,4.08575 c 0.400026,0.63359 1.029861,0.73908 1.754726,0.28143 l 2.652466,-1.67469 -0.281374,-0.44565 -2.700791,1.70519 c -0.440287,0.27798 -0.81271,0.23526 -1.039843,-0.12449 -0.101702,-0.16108 -0.188979,-0.40636 -0.208729,-0.60417 l -0.414262,0.0813 c 0.0067,0.29614 0.09542,0.55555 0.237807,0.78106 z m 1.266945,1.88362 0.297334,0.39612 3.072502,-2.30625 -0.05718,-0.0762 -1.50578,4.39351 0.350702,0.46723 3.52449,-2.64552 -0.297334,-0.39612 -3.082659,2.31387 0.06099,0.0813 1.523561,-4.39099 -0.362138,-0.48246 z m 2.935075,3.74951 0.345666,0.39786 3.32673,-2.89026 -0.345666,-0.39787 z m 3.431873,3.66915 c 0.308168,0.29332 0.695804,0.53079 1.126335,0.68635 l 0.179667,-0.36375 c -0.317536,-0.12691 -0.655242,-0.34315 -0.899016,-0.57518 -0.76352,-0.72675 -0.752863,-1.75108 0.02204,-2.56519 0.739883,-0.77732 1.655369,-0.80889 2.423489,-0.0778 0.257573,0.24516 0.494806,0.57617 0.651021,0.9002 l 0.381824,-0.1801 c -0.116369,-0.34747 -0.377486,-0.73628 -0.690253,-1.03398 -0.988897,-0.94127 -2.285817,-0.8958 -3.240222,0.1069 -0.915003,0.9613 -0.89779,2.20502 0.04511,3.10251 z m 3.11942,-3.72856 0.19778,0.18826 1.192681,-0.0833 -0.02504,-0.28684 -0.957325,-0.0258 -0.04515,-0.91964 -0.409252,-0.0214 z m -1.462735,5.12819 1.945097,1.57357 0.295542,-0.36533 -1.535342,-1.24207 2.476166,-3.06081 -0.409754,-0.33149 z m 2.073238,1.69189 0.455603,0.31246 3.472899,-2.51536 -0.04713,-0.0323 -1.163464,4.09918 0.487023,0.334 1.214663,-4.51065 -0.565576,-0.38788 z m 1.425855,-0.60831 1.817174,1.24623 0.258582,-0.37705 -1.817174,-1.24623 z m 2.32021,3.13205 0.433428,0.23972 1.85931,-3.36185 -0.08335,-0.0461 0.424521,4.62495 0.511223,0.28274 2.132829,-3.8564 -0.433428,-0.23971 -1.865457,3.37296 0.08891,0.0492 -0.407261,-4.62992 -0.527893,-0.29195 z m 3.70881,2.02454 0.506793,0.21991 2.929959,-3.13104 -0.05243,-0.0227 -0.361041,4.24577 0.541745,0.23508 0.332892,-4.65946 -0.629123,-0.273 z m 1.283815,-0.86886 2.021348,0.87712 0.181996,-0.41941 -2.021348,-0.87712 z m 5.299408,3.42972 0.656218,0.22011 -1.297603,-2.98038 -0.02237,0.14654 2.64317,-1.37053 -0.614075,-0.20598 -2.574889,1.36665 z m -2.420176,-0.8118 0.499688,0.16761 1.401467,-4.17812 -0.499689,-0.16761 z m 32.262673,-0.22856 0.652377,-0.23124 -2.859081,-1.54665 0.07274,0.12917 1.236183,-2.70861 -0.610481,0.2164 -1.184818,2.66345 z m -2.406013,0.85287 0.496764,-0.17609 -1.472356,-4.15367 -0.496764,0.17609 z m 3.132226,-1.11181 0.502973,-0.22852 -0.358168,-4.27314 -0.05203,0.0236 2.907721,3.11481 0.537661,-0.24428 -3.233504,-3.37132 -0.62438,0.28367 z m 0.216269,-1.53503 2.006111,-0.91144 -0.189116,-0.41625 -2.006111,0.91143 z m 4.697027,-0.84525 0.460126,-0.25704 -1.926198,-3.44817 1.286135,-0.71845 -0.222968,-0.39915 -3.026852,1.69085 0.222968,0.39914 1.280591,-0.71535 z m 2.290379,-1.33047 2.301138,-1.53945 -0.254221,-0.38001 -1.863077,1.2464 -0.886244,-1.32474 1.720576,-1.15106 -0.254222,-0.38 -1.720575,1.15105 -0.801504,-1.19807 1.863078,-1.24639 -0.254222,-0.38 -2.301137,1.53945 z m 4.630767,-3.28514 c 0.473879,-0.38347 0.791486,-0.86921 0.917325,-1.42032 l -1.174383,-1.45125 -1.382147,1.11846 0.287604,0.35541 0.972439,-0.78692 0.898762,1.11066 -0.06999,-0.27828 c -0.142728,0.36872 -0.375932,0.6963 -0.681979,0.94396 -0.824352,0.66708 -1.816834,0.53082 -2.527855,-0.34783 -0.691048,-0.85397 -0.60181,-1.74305 0.232414,-2.41812 0.310984,-0.25165 0.727252,-0.47414 1.120236,-0.60427 l -0.137178,-0.41179 c -0.420946,0.0956 -0.845203,0.30819 -1.220357,0.61178 -1.081037,0.87479 -1.225579,2.15988 -0.354778,3.23598 0.846834,1.04648 2.083271,1.18138 3.119882,0.34253 z m 3.222178,-2.92785 c 0.899675,-0.89638 0.852588,-2.14921 -0.124458,-3.12986 -0.932227,-0.93566 -2.139995,-0.97829 -3.012681,-0.10881 -0.88618,0.88292 -0.83008,2.11782 0.133521,3.08497 0.945672,0.94915 2.144427,1.00973 3.003618,0.1537 z m -0.277711,-0.36871 c -0.656763,0.65436 -1.613002,0.56728 -2.397328,-0.21993 -0.735025,-0.73774 -0.809681,-1.64937 -0.179908,-2.27683 0.670259,-0.6678 1.631029,-0.60317 2.401909,0.17055 0.748471,0.75123 0.818595,1.68531 0.175327,2.32621 z m 2.350517,-1.86932 0.33568,-0.40633 -3.04503,-2.51554 0.554066,-0.67069 c 0.400384,-0.48466 0.884625,-0.56234 1.305641,-0.21453 0.416121,0.34376 0.4457,0.7965 0.06149,1.26157 l -0.715837,0.86651 0.342687,0.2831 0.675395,-0.81755 c 0.582375,-0.70496 0.533225,-1.55275 -0.09341,-2.07042 -0.597256,-0.4934 -1.31372,-0.34399 -1.888008,0.35117 l -0.930184,1.12598 z m 1.62984,-1.9729 0.40039,-0.48466 -2.38224,-0.38658 -0.384207,0.46507 z m 0.82194,-1.10686 0.30973,-0.42644 -3.565667,-2.58975 -0.309725,0.42644 z m 1.17822,-1.5649 c 0.41151,-0.62619 0.24716,-1.24329 -0.46924,-1.71408 l -2.62149,-1.72276 -0.28945,0.44046 2.66925,1.75414 c 0.43515,0.28596 0.55022,0.64273 0.31657,0.99828 -0.10462,0.1592 -0.29187,0.34008 -0.46381,0.43984 l 0.24531,0.34358 c 0.26686,-0.12857 0.46639,-0.31658 0.61286,-0.53946 z m 1.17569,-1.94103 1.35702,-2.41322 -0.39851,-0.2241 -1.09869,1.95382 -1.38926,-0.78122 1.01465,-1.80438 -0.39851,-0.2241 -1.01466,1.80439 -1.25642,-0.70653 1.09869,-1.95382 -0.39852,-0.2241 -1.35702,2.41322 z"
       id="text1"
       transform="rotate(85.173738,65.806901,230.8905)"
       aria-label="              AUTORI                        NAJNOVIJI ČLANCI             SLUČAJNI ČLANAK                   KATEGORIJE" />
  </g>
</svg>
