<?xml version="1.0" encoding="UTF-8"?>
<!-- Created with Inkscape (http://www.inkscape.org/) -->
<svg id="svg1" width="50" height="50" inkscape:version="1.3 (0e150ed6c4, 2023-07-21)" sodipodi:docname="home.svg" version="1.1" viewBox="0 0 13.229 13.229" xmlns="http://www.w3.org/2000/svg" xmlns:inkscape="http://www.inkscape.org/namespaces/inkscape" xmlns:sodipodi="http://sodipodi.sourceforge.net/DTD/sodipodi-0.dtd">
 <sodipodi:namedview id="namedview1" bordercolor="#000000" borderopacity="0.25" inkscape:current-layer="layer1" inkscape:cx="25.70038" inkscape:cy="25.822182" inkscape:deskcolor="#d1d1d1" inkscape:document-units="px" inkscape:pagecheckerboard="0" inkscape:pageopacity="0.0" inkscape:showpageshadow="2" inkscape:window-height="703" inkscape:window-maximized="1" inkscape:window-width="1366" inkscape:window-x="0" inkscape:window-y="0" inkscape:zoom="8.2099954" pagecolor="#ffffff"/>
 <g id="layer1" inkscape:groupmode="layer" inkscape:label="Layer 1">
  <path id="path2" transform="translate(0 -.52917)" d="m2.2232 4.7208h8.9921a0.23189 0.23189 105.41 0 0 0.1188-0.43104l-4.165-2.4845a0.88912 0.88912 0.18902 0 0-0.90593-0.00299l-4.1676 2.4489a0.25219 0.25219 74.781 0 0 0.12776 0.46962zm3.7568 2.298h1.6858c0.11979 0 0.21689 0.097106 0.21689 0.21689v4.4187h-2.1452v-4.3931c0-0.13391 0.10855-0.24246 0.24246-0.24246zm-2.7018-2.2835h6.9284v6.6286c0 0.16556-0.13422 0.29978-0.29978 0.29978h-6.4356c-0.10662 0-0.19305-0.08643-0.19305-0.19305z" fill="none" stroke="#000" stroke-linecap="round" stroke-width=".6" inkscape:original-d="M 1.2962332,4.7207944 H 12.056677 L 6.7169428,1.5356006 Z M 5.979974,7.0188398 H 7.6658106 A 0.21689227,0.21689227 0 0 1 7.8827028,7.2357321 V 11.654389 H 5.7375145 V 7.2612993 A 0.24245946,0.24245946 0 0 1 5.979974,7.0188398 Z M 3.2781494,4.7353883 H 10.206567 V 11.364026 A 0.29977973,0.29977973 0 0 1 9.9067868,11.663805 H 3.4711985 A 0.19304913,0.19304913 0 0 1 3.2781494,11.470756 Z" inkscape:path-effect="#path-effect3"/>
 </g>
</svg>
