<?xml version="1.0" encoding="UTF-8"?>
<!-- Created with Inkscape (http://www.inkscape.org/) -->
<svg width="124.84mm" height="19.755mm" version="1.1" viewBox="0 0 124.84 19.755" xmlns="http://www.w3.org/2000/svg">
 <g transform="translate(-11.881 -31.313)" fill="none" stroke="#000">
  <g stroke-width="3">
   <path d="m13.855 37.79v12.239"/>
   <path d="m28.563 33.84s-1.469-0.47344-2.2282-0.59106c-0.89118-0.13808-1.8075-0.24493-2.7019-0.13005-0.95843 0.12311-1.9626 0.32909-2.7678 0.86676-0.59413 0.39677-1.0851 0.99186-1.3794 1.6456-0.29493 0.65511-0.46445 1.429-0.32052 2.1334 0.116 0.56779 0.50227 1.0694 0.91142 1.4774 0.55064 0.54902 1.279 0.89802 1.9869 1.2157 0.61563 0.27632 1.2993 0.36498 1.9362 0.58727 1.008 0.35182 2.0552 0.64118 2.9782 1.1797 0.5776 0.33699 1.1957 0.69953 1.5628 1.2609 0.36285 0.55497 0.5142 1.2572 0.52625 1.9214 0.01287 0.70917-0.11099 1.4708-0.48703 2.0706-0.33759 0.53852-0.91891 0.90086-1.4787 1.1974-0.87666 0.4644-1.8613 0.75599-2.8466 0.85957-0.73593 0.07736-1.4808-0.07276-2.2121-0.18597-0.85684-0.13264-1.7102-0.31354-2.537-0.57604-0.29118-0.09245-0.84745-0.34988-0.84745-0.34988"/>
   <path d="m41.206 39.019s-1.1553-0.48686-1.7681-0.58392c-0.68229-0.10808-1.3918-0.11025-2.0721 0.0101-0.56852 0.10058-1.1397 0.28102-1.6308 0.58644-0.61015 0.3795-1.1723 0.88689-1.5539 1.4981-0.39174 0.62743-0.5468 1.3857-0.68478 2.1136-0.12645 0.66705-0.17919 1.3565-0.12508 2.0334 0.05758 0.72024 0.18607 1.4529 0.47508 2.1143 0.25021 0.57262 0.60657 1.117 1.0624 1.5422 0.37974 0.35424 0.85626 0.60474 1.3399 0.7908 0.49324 0.18976 1.0261 0.27612 1.5526 0.3165 0.50386 0.03864 1.0158 0.01076 1.5142-0.0728 0.69693-0.11683 2.0357-0.59436 2.0357-0.59436"/>
   <path d="m45.682 37.895v12.068"/>
   <path d="m45.823 40.964s0.9676-0.91348 1.516-1.2838c0.37135-0.25076 0.77557-0.45351 1.1884-0.62638 0.3053-0.12783 0.6213-0.23736 0.9459-0.30083 0.29294-0.05728 0.59436-0.05829 0.89256-0.06995 0.19288-0.0075 0.38744-0.0233 0.57907 0 0.2234 0.02717 0.65566 0.16185 0.65566 0.16185"/>
   <path d="m55.365 37.799v12.213"/>
  </g>
  <path transform="matrix(.89051 0 0 .89788 43.178 3.7921)" d="m15.083 32.699c-1.0731-0.45257-1.6916-0.29837-2.202 0.10203-0.22014 0.17271-0.5205 0.54298-0.52006 0.81599 1.54e-4 0.09505 0.0097 0.19247 0.02144 0.28615 0.01014 0.08118 0.02763 0.21259 0.04046 0.29327 6e-3 0.03773 0.01277 0.07581 0.02081 0.11356 0.05684 0.26684 0.44164 0.56236 0.71784 0.58479 0.35175 0.02856 0.74248-0.07542 1.0712-0.18396 0.26957-0.089 0.53378-0.25916 0.69282-0.49299 0.16539-0.24317 0.21-0.85537 0.21-0.85537" stroke-width="3.0094"/>
  <g stroke-width="3">
   <path d="m61.629 31.313v18.708"/>
   <path d="m61.763 40.419s0.95566-0.9352 1.5232-1.275c0.42184-0.25254 0.89223-0.42641 1.3677-0.54892 0.4361-0.11236 0.89093-0.18892 1.3405-0.16512 0.67291 0.03563 1.361 0.1667 1.9697 0.45772 0.57817 0.27644 1.1131 0.6852 1.5169 1.1851 0.36359 0.45012 0.60527 1.0046 0.75915 1.5637 0.1838 0.66778 0.16346 1.3783 0.17736 2.0711 0.01186 0.59148 0.04098 1.1941-0.08038 1.773-0.14788 0.70538-0.40897 1.3981-0.77767 2.0161-0.28298 0.47436-0.62152 0.94691-1.0764 1.2576-0.48228 0.32936-1.0846 0.44314-1.6526 0.57467-0.53324 0.12348-1.0861 0.25916-1.6298 0.19715-0.59484-0.06784-1.1529-0.34565-1.69-0.61178-0.61779-0.30611-1.7396-1.1214-1.7396-1.1214"/>
   <path d="m74.663 39.43s1.1619-0.53491 1.7702-0.72557c0.38057-0.11928 0.77188-0.21211 1.1677-0.25918 0.50706-0.0603 1.0222-0.06377 1.5315-0.02797 0.55342 0.0389 1.1206 0.07694 1.6437 0.26285 0.5159 0.18335 1.0587 0.41222 1.4233 0.82274 0.36788 0.41411 0.53797 0.98677 0.65947 1.5287 0.17066 0.76112 0.06944 1.5592 0.07969 2.3394 0.01664 1.2675-0.07781 2.5361-0.02964 3.8029 0.0349 0.91775 0.23063 2.7455 0.23063 2.7455"/>
   <path d="m83.036 43.706s-1.8137-0.05983-2.7194-0.02127c-0.74187 0.03158-1.4943 0.03984-2.2181 0.20669-0.57636 0.13286-1.1378 0.349-1.6614 0.62557-0.36029 0.19033-0.77386 0.36303-1.0015 0.70251-0.2625 0.39149-0.30357 0.90897-0.31437 1.3812-0.01229 0.53687 0.01064 1.1248 0.28521 1.5853 0.30012 0.50329 0.84289 0.84642 1.3726 1.0918 0.45229 0.20954 0.96779 0.28993 1.4657 0.28978 0.58741-1.81e-4 1.1746-0.1475 1.729-0.34294 1.0447-0.36828 2.9468-1.5411 2.9468-1.5411"/>
   <path d="m88.756 37.901v12.068"/>
   <path d="m88.898 40.969s0.9676-0.91348 1.516-1.2838c0.37135-0.25076 0.77557-0.45351 1.1884-0.62638 0.3053-0.12783 0.6213-0.23736 0.9459-0.30083 0.29294-0.05728 0.59436-0.05829 0.89256-0.06995 0.19288-0.0075 0.38744-0.0233 0.57907 0 0.2234 0.02717 0.65566 0.16185 0.65566 0.16185"/>
   <path d="m98.371 37.826v12.213"/>
  </g>
  <path transform="matrix(.89051 0 0 .89788 86.243 3.9307)" d="m15.083 32.699c-1.0731-0.45257-1.6916-0.29837-2.202 0.10203-0.22014 0.17271-0.5205 0.54298-0.52006 0.81599 1.54e-4 0.09505 0.0097 0.19247 0.02144 0.28615 0.01014 0.08118 0.02763 0.21259 0.04046 0.29327 6e-3 0.03773 0.01277 0.07581 0.02081 0.11356 0.05684 0.26684 0.44164 0.56236 0.71784 0.58479 0.35175 0.02856 0.74248-0.07542 1.0712-0.18396 0.26957-0.089 0.53378-0.25916 0.69282-0.49299 0.16539-0.24317 0.21-0.85537 0.21-0.85537" stroke-width="3.0094"/>
  <path d="m104.37 37.822s-0.18204 4.7406 0 7.1002c0.0616 0.79834 0.0539 1.638 0.36843 2.3734 0.26664 0.62329 0.68129 1.2266 1.2372 1.6106 0.5954 0.41125 1.3542 0.59556 2.0757 0.62397 0.7763 0.03057 1.5576-0.20221 2.2785-0.49364 0.78161-0.31596 1.8477-0.54269 2.1518-1.3333 0.28979-0.75324-5e-3 -3.1556 0-4.7333 5e-3 -1.4809-0.19146-4.4223 0.0291-4.4427 0.10518-0.0097 0.0741 3.6768 0.10642 5.5153 0.034 1.9357 0.0921 5.8073 0.0921 5.8073" stroke-width="3"/>
  <path d="m118.56 37.81s0.0175 6.8786 0 7.5035c-0.023 0.81842-0.12175 4.015-7e-3 3.9638 0 0-0.30453-7.6906 0.27366-9.1932 0.29562-0.76825 1.3972-0.88474 2.1696-1.1575 0.73355-0.25907 1.5158-0.49183 2.2913-0.43758 0.75449 0.05279 1.535 0.28784 2.1492 0.73201 0.53572 0.38741 0.98845 0.95529 1.1993 1.5844 0.42887 1.2794-0.0154 2.7006-9.9e-4 4.0507 0.0157 1.4697 0.10372 4.4533 0.0951 4.4083-0.0398-0.2071-0.12321-4.4553 0.0789-6.6692 0.0766-0.83952-0.0401-1.7934 0.42839-2.4921 0.38427-0.57306 1.1226-0.81479 1.7517-1.0924 0.71316-0.31474 1.4722-0.60253 2.2504-0.63114 0.71888-0.02642 1.4875 0.07587 2.1156 0.42884 0.6672 0.37494 1.2636 0.97952 1.5645 1.6865 0.46609 1.0953 0.17221 2.3776 0.20667 3.5686 0.0571 1.976 0 5.9306 0 5.9306" stroke-width="3"/>
  <path transform="matrix(.89051 0 0 .89788 2.2136 3.6705)" d="m15.083 32.699c-1.0731-0.45257-1.6916-0.29837-2.202 0.10203-0.22014 0.17271-0.5205 0.54298-0.52006 0.81599 1.54e-4 0.09505 0.0097 0.19247 0.02144 0.28615 0.01014 0.08118 0.02763 0.21259 0.04046 0.29327 6e-3 0.03773 0.01277 0.07581 0.02081 0.11356 0.05684 0.26684 0.44164 0.56236 0.71784 0.58479 0.35175 0.02856 0.74248-0.07542 1.0712-0.18396 0.26957-0.089 0.53378-0.25916 0.69282-0.49299 0.16539-0.24317 0.21-0.85537 0.21-0.85537" stroke-width="3.0094"/>
 </g>
</svg>
