<?xml version="1.0" encoding="UTF-8"?>
<!-- Created with Inkscape (http://www.inkscape.org/) -->
<svg width="211.14mm" height="42.302mm" version="1.1" viewBox="0 0 211.14 42.302" xmlns="http://www.w3.org/2000/svg">
 <g transform="translate(-7.2255 -2.084)" fill="none" stroke="#f00" stroke-width="3">
  <path d="m12.67 38.959c-0.26654-6.6552-2.3945-13.102-1.9747-19.785"/>
  <path d="m11.683 16.167c-7.7189-2.9731 2.2932-4.6856-0.43895-0.57191"/>
  <path d="m34.534 5.4341c-3.0663-0.87516-5.9593-1.438-8.9215-0.051379-1.5254 0.71403-2.8484 2.768-3.6393 4.1992-8.2888 14.999 10.134 8.5481 15.607 10.638 3.025 1.155 4.1926 3.9776 4.6192 6.9637 1.6955 11.868-13.346 14.283-20.406 7.5749"/>
  <path d="m66.046 17.543c-27.989-11.637-18.776 30.403-2.0361 16.266"/>
  <path d="m71.732 15.431c0 3.8312-0.09094 7.3786 0.13998 11.15 2.3838 38.936-2.7038-27.296 14.437-9.403"/>
  <path d="m93.644 39.97c-0.88543-7.1714-0.6376-14.5-0.32336-21.651"/>
  <path d="m93.184 8.6825c-2.0152 4.56 4.6004 3.1767 0 0z"/>
  <path d="m104.68 2.1333c-0.41977 12.768-1.9962 25.502-2.2055 38.322"/>
  <path d="m104.24 23.598c12.358-21.982 24.015 28.766-0.52141 14.739"/>
  <path d="m123.55 20.541c11.97-19.488 9.3169 27.756 19.328 14.185"/>
  <path d="m133.26 29.126c-16.863-1.0714-6.3279 21.766 3.035 6.6578"/>
  <path d="m146.42 14.471c0.22289 2.8156 0.85737 5.862 0.85737 8.7599 0 45.422-5.1403-21.649 12.193-6.7597"/>
  <path d="m166.87 42.128c-0.78902-8.2196-1.6615-16.452-1.1073-24.607"/>
  <path d="m168.07 10.065c-5.9593-1.5533-3.6942 4.6735 0 0z"/>
  <path d="m173.63 15.602c0.11494 3.6858-0.80486 7.3225-0.80486 11.008 0 2.5973-1.4562 20.548 6.7431 15.33 2.1569-1.3726 3.4448-3.6815 3.9543-6.2289 5.2152-26.076-2.1502-14.219 2.8211 5.9438"/>
  <path d="m191.35 13.639c0.2384 2.995-0.14858 6.0396-0.55107 9.018-0.23454 1.7355-2.3647 18.216 0.27728 18.974 2.0327 0.58341-2.9137-25.121 8.2853-24.055 7.6875 0.73215 5.4064 23.911 3.9057 22.86-2.5604-1.7931 2.1541-22.792 7.3406-19.789 5.5194 3.1954 3.3076 15.524 6.563 19.859"/>
 </g>
</svg>
