<?xml version="1.0" encoding="UTF-8"?>
<svg id="svg1" width="50" height="50" inkscape:version="1.3 (0e150ed6c4, 2023-07-21)" sodipodi:docname="logo.svg" version="1.1" xmlns="http://www.w3.org/2000/svg" xmlns:inkscape="http://www.inkscape.org/namespaces/inkscape" xmlns:sodipodi="http://sodipodi.sourceforge.net/DTD/sodipodi-0.dtd">
 <sodipodi:namedview id="namedview1" bordercolor="#000000" borderopacity="0.25" inkscape:current-layer="g1" inkscape:cx="30.200412" inkscape:cy="20.852665" inkscape:deskcolor="#d1d1d1" inkscape:pagecheckerboard="0" inkscape:pageopacity="0.0" inkscape:showpageshadow="2" inkscape:window-height="703" inkscape:window-maximized="1" inkscape:window-width="1366" inkscape:window-x="0" inkscape:window-y="0" inkscape:zoom="8.3442572" pagecolor="#ffffff"/>
 <g id="g1" transform="translate(-2,-26)" fill="none">
  <path id="draw-i" d="m27.839 47.62v18.193" fill="none" stroke="#f00" stroke-linecap="round" stroke-width="7.4323"/>
  <path id="draw-dot" d="m30.444 35.311c-2.0737-0.87455-3.2689-0.57657-4.2552 0.19716-0.4254 0.33375-1.0058 1.0493-1.005 1.5768 2.98e-4 0.18368 0.01875 0.37193 0.04143 0.55296 0.01959 0.15687 0.05339 0.41081 0.07819 0.56672 0.01159 0.07291 0.02468 0.14649 0.04021 0.21944 0.10984 0.51564 0.85343 1.0867 1.3872 1.1301 0.67972 0.05519 1.4348-0.14575 2.07-0.35549 0.52092-0.17198 1.0315-0.5008 1.3388-0.95266 0.3196-0.4699 0.4058-1.6529 0.4058-1.6529" stroke="#ff0" stroke-width="5.8154"/>
  <circle id="path1" cx="27.106" cy="50.72" r="22.024" fill="none" stroke="#ff0" stroke-linecap="round" stroke-linejoin="round" stroke-miterlimit="0" stroke-width="4"/>
 </g>
</svg>
